{
    "asset" : {
        "generator" : "Khronos glTF Blender I/O v3.4.49",
        "version" : "2.0"
    },
    "scene" : 0,
    "scenes" : [
        {
            "name" : "Scene",
            "nodes" : [
                0
            ]
        }
    ],
    "nodes" : [
        {
            "mesh" : 0,
            "name" : "Will"
        }
    ],
    "materials" : [
        {
            "name" : "Will",
            "pbrMetallicRoughness" : {
                "baseColorTexture" : {
                    "index" : 0
                },
                "metallicFactor" : 0
            }
        }
    ],
    "meshes" : [
        {
            "extras" : {
                "targetNames" : [
                    "Open Mouth",
                    "Blink",
                    "Eyebrows",
                    "Smile",
                    "Look Left",
                    "Look Right",
                    "Look Up",
                    "Look Down"
                ]
            },
            "name" : "Will",
            "primitives" : [
                {
                    "attributes" : {
                        "POSITION" : 0,
                        "TEXCOORD_0" : 1,
                        "NORMAL" : 2
                    },
                    "indices" : 3,
                    "material" : 0,
                    "targets" : [
                        {
                            "POSITION" : 4,
                            "NORMAL" : 5
                        },
                        {
                            "POSITION" : 6,
                            "NORMAL" : 7
                        },
                        {
                            "POSITION" : 8,
                            "NORMAL" : 9
                        },
                        {
                            "POSITION" : 10,
                            "NORMAL" : 11
                        },
                        {
                            "POSITION" : 12,
                            "NORMAL" : 13
                        },
                        {
                            "POSITION" : 14,
                            "NORMAL" : 15
                        },
                        {
                            "POSITION" : 16,
                            "NORMAL" : 17
                        },
                        {
                            "POSITION" : 18,
                            "NORMAL" : 19
                        }
                    ]
                }
            ],
            "weights" : [
                0,
                0,
                0,
                0,
                0,
                0,
                0,
                0
            ]
        }
    ],
    "textures" : [
        {
            "sampler" : 0,
            "source" : 0
        }
    ],
    "images" : [
        {
            "bufferView" : 4,
            "mimeType" : "image/png",
            "name" : "will-diffuse-1024"
        }
    ],
    "accessors" : [
        {
            "bufferView" : 0,
            "componentType" : 5126,
            "count" : 4402,
            "max" : [
                0.1267787367105484,
                0.20415614545345306,
                0.15761971473693848
            ],
            "min" : [
                -0.12587638199329376,
                -0.15737736225128174,
                -0.14875803887844086
            ],
            "type" : "VEC3"
        },
        {
            "bufferView" : 1,
            "componentType" : 5126,
            "count" : 4402,
            "type" : "VEC2"
        },
        {
            "bufferView" : 2,
            "componentType" : 5126,
            "count" : 4402,
            "type" : "VEC3"
        },
        {
            "bufferView" : 3,
            "componentType" : 5123,
            "count" : 24894,
            "type" : "SCALAR"
        },
        {
            "bufferView" : 5,
            "componentType" : 5126,
            "count" : 4402,
            "max" : [
                0.0027658604085445404,
                0.00947561115026474,
                0.00026237964630126953
            ],
            "min" : [
                -0.0033485330641269684,
                -0.03248259052634239,
                -0.04747987166047096
            ],
            "type" : "VEC3"
        },
        {
            "bufferView" : 6,
            "componentType" : 5126,
            "count" : 4402,
            "type" : "VEC3"
        },
        {
            "bufferView" : 7,
            "componentType" : 5126,
            "count" : 4402,
            "max" : [
                0.004662714898586273,
                0.004137679934501648,
                0.000992804765701294
            ],
            "min" : [
                -0.002125050872564316,
                -0.01710614562034607,
                -0.005803957581520081
            ],
            "type" : "VEC3"
        },
        {
            "bufferView" : 8,
            "componentType" : 5126,
            "count" : 4402,
            "type" : "VEC3"
        },
        {
            "bufferView" : 9,
            "componentType" : 5126,
            "count" : 4402,
            "max" : [
                0.0004946589469909668,
                0.005522817373275757,
                0.000502169132232666
            ],
            "min" : [
                -0.0005161836743354797,
                -0.0005182698369026184,
                -0.001086600124835968
            ],
            "type" : "VEC3"
        },
        {
            "bufferView" : 10,
            "componentType" : 5126,
            "count" : 4402,
            "type" : "VEC3"
        },
        {
            "bufferView" : 11,
            "componentType" : 5126,
            "count" : 4402,
            "max" : [
                0.0014296285808086395,
                0.00788806565105915,
                0.0011047571897506714
            ],
            "min" : [
                -0.0010701827704906464,
                -0.0008732527494430542,
                -0.0010165050625801086
            ],
            "type" : "VEC3"
        },
        {
            "bufferView" : 12,
            "componentType" : 5126,
            "count" : 4402,
            "type" : "VEC3"
        },
        {
            "bufferView" : 13,
            "componentType" : 5126,
            "count" : 4402,
            "max" : [
                0.008545730262994766,
                0.0005693510174751282,
                0.0033890902996063232
            ],
            "min" : [
                -0.0005211308598518372,
                -0.001223646104335785,
                -0.004233032464981079
            ],
            "type" : "VEC3"
        },
        {
            "bufferView" : 14,
            "componentType" : 5126,
            "count" : 4402,
            "type" : "VEC3"
        },
        {
            "bufferView" : 15,
            "componentType" : 5126,
            "count" : 4402,
            "max" : [
                0.000744841992855072,
                0.0013086646795272827,
                0.003186069428920746
            ],
            "min" : [
                -0.008244697004556656,
                -0.0018173828721046448,
                -0.004359014332294464
            ],
            "type" : "VEC3"
        },
        {
            "bufferView" : 16,
            "componentType" : 5126,
            "count" : 4402,
            "type" : "VEC3"
        },
        {
            "bufferView" : 17,
            "componentType" : 5126,
            "count" : 4402,
            "max" : [
                0.0007876604795455933,
                0.006933197379112244,
                0.0023659542202949524
            ],
            "min" : [
                -0.0006908997893333435,
                -0.0011805742979049683,
                -0.00271616131067276
            ],
            "type" : "VEC3"
        },
        {
            "bufferView" : 18,
            "componentType" : 5126,
            "count" : 4402,
            "type" : "VEC3"
        },
        {
            "bufferView" : 19,
            "componentType" : 5126,
            "count" : 4402,
            "max" : [
                0.0009803175926208496,
                0.0006952062249183655,
                0.0011740997433662415
            ],
            "min" : [
                -0.0006175115704536438,
                -0.004190266132354736,
                -0.0021603181958198547
            ],
            "type" : "VEC3"
        },
        {
            "bufferView" : 20,
            "componentType" : 5126,
            "count" : 4402,
            "type" : "VEC3"
        }
    ],
    "bufferViews" : [
        {
            "buffer" : 0,
            "byteLength" : 52824,
            "byteOffset" : 0,
            "target" : 34962
        },
        {
            "buffer" : 0,
            "byteLength" : 35216,
            "byteOffset" : 52824,
            "target" : 34962
        },
        {
            "buffer" : 0,
            "byteLength" : 52824,
            "byteOffset" : 88040,
            "target" : 34962
        },
        {
            "buffer" : 0,
            "byteLength" : 49788,
            "byteOffset" : 140864,
            "target" : 34963
        },
        {
            "buffer" : 0,
            "byteLength" : 379416,
            "byteOffset" : 190652
        },
        {
            "buffer" : 0,
            "byteLength" : 52824,
            "byteOffset" : 570068,
            "target" : 34962
        },
        {
            "buffer" : 0,
            "byteLength" : 52824,
            "byteOffset" : 622892,
            "target" : 34962
        },
        {
            "buffer" : 0,
            "byteLength" : 52824,
            "byteOffset" : 675716,
            "target" : 34962
        },
        {
            "buffer" : 0,
            "byteLength" : 52824,
            "byteOffset" : 728540,
            "target" : 34962
        },
        {
            "buffer" : 0,
            "byteLength" : 52824,
            "byteOffset" : 781364,
            "target" : 34962
        },
        {
            "buffer" : 0,
            "byteLength" : 52824,
            "byteOffset" : 834188,
            "target" : 34962
        },
        {
            "buffer" : 0,
            "byteLength" : 52824,
            "byteOffset" : 887012,
            "target" : 34962
        },
        {
            "buffer" : 0,
            "byteLength" : 52824,
            "byteOffset" : 939836,
            "target" : 34962
        },
        {
            "buffer" : 0,
            "byteLength" : 52824,
            "byteOffset" : 992660,
            "target" : 34962
        },
        {
            "buffer" : 0,
            "byteLength" : 52824,
            "byteOffset" : 1045484,
            "target" : 34962
        },
        {
            "buffer" : 0,
            "byteLength" : 52824,
            "byteOffset" : 1098308,
            "target" : 34962
        },
        {
            "buffer" : 0,
            "byteLength" : 52824,
            "byteOffset" : 1151132,
            "target" : 34962
        },
        {
            "buffer" : 0,
            "byteLength" : 52824,
            "byteOffset" : 1203956,
            "target" : 34962
        },
        {
            "buffer" : 0,
            "byteLength" : 52824,
            "byteOffset" : 1256780,
            "target" : 34962
        },
        {
            "buffer" : 0,
            "byteLength" : 52824,
            "byteOffset" : 1309604,
            "target" : 34962
        },
        {
            "buffer" : 0,
            "byteLength" : 52824,
            "byteOffset" : 1362428,
            "target" : 34962
        }
    ],
    "samplers" : [
        {
            "magFilter" : 9729,
            "minFilter" : 9987
        }
    ],
    "buffers" : [
        {
            "byteLength" : 1415252,
            "uri" : "data:application/octet-stream;base64,"
        }
    ]
}
