<?xml version="1.0" encoding="utf-8"?>
<!-- Generator: Adobe Illustrator 16.0.0, SVG Export Plug-In . SVG Version: 6.00 Build 0)  -->
<!DOCTYPE svg PUBLIC "-//W3C//DTD SVG 1.1//EN" "http://www.w3.org/Graphics/SVG/1.1/DTD/svg11.dtd">
<svg version="1.1" id="Layer_1" xmlns="http://www.w3.org/2000/svg" xmlns:xlink="http://www.w3.org/1999/xlink" x="0px" y="0px"
	 width="80px" height="80px" viewBox="0 0 80 80" enable-background="new 0 0 80 80" xml:space="preserve">
<g>
	<g>
		<path fill="#EDB886" d="M27.256,55.933c-0.231,0-0.379-0.007-0.419-0.012l-0.316-0.022l0.182-2.639l0.316,0.02
			c0.024,0.003,0.116,0.005,0.262,0.005c1.15,0,5.068-0.293,7.156-4.068l0.154-0.28l2.318,1.282l-0.155,0.277
			C33.965,55.54,28.779,55.933,27.256,55.933z"/>
		<g>
			<path fill="#020202" d="M34.714,49.369l1.761,0.974c-2.71,4.901-7.758,5.272-9.219,5.272c-0.222,0-0.361-0.01-0.396-0.013
				l0.138-2.005c0.025,0,0.125,0.007,0.283,0.007C28.405,53.604,32.529,53.322,34.714,49.369 M34.466,48.505l-0.308,0.559
				c-2.005,3.623-5.771,3.903-6.878,3.903c-0.148,0-0.232-0.006-0.24-0.006l-0.634-0.042l-0.043,0.633l-0.139,2.008l-0.043,0.634
				l0.634,0.045c0.042,0.003,0.199,0.013,0.442,0.013c1.566,0,6.903-0.403,9.776-5.601l0.308-0.556l-0.557-0.311l-1.76-0.971
				L34.466,48.505L34.466,48.505z"/>
		</g>
	</g>
	<g>
		<path fill="#B78053" d="M35.915,50.035c-2.758,4.506-7.559,4.859-8.977,4.859c-0.011,0-0.019,0-0.03,0l-0.048,0.708
			c0.035,0.003,0.174,0.013,0.396,0.013c1.461,0,6.509-0.371,9.219-5.272L35.915,50.035z"/>
	</g>
	<g>
		<path fill="#75401B" d="M27.652,56.782c-0.176,0-0.319-0.144-0.319-0.318v-3.641c0-0.14,0.092-0.265,0.227-0.305
			c0.35-0.103,1.342-0.479,1.74-0.954c0.063-0.072,0.153-0.112,0.245-0.112c0.058,0,0.116,0.018,0.169,0.05
			c0.876,0.551,2.037,2.596,0.74,4.821c-0.034,0.058-0.087,0.105-0.15,0.133C29.555,56.771,27.844,56.782,27.652,56.782z"/>
		<path fill="#020202" d="M29.545,51.77c0.646,0.408,1.896,2.226,0.634,4.394c-0.71,0.301-2.527,0.301-2.527,0.301v-3.641
			C27.652,52.823,28.996,52.426,29.545,51.77 M29.545,51.134c-0.183,0-0.364,0.078-0.489,0.228
			c-0.347,0.413-1.285,0.762-1.587,0.854c-0.27,0.08-0.454,0.325-0.454,0.607v3.641c0,0.351,0.285,0.636,0.636,0.636
			c0.325,0,1.987-0.018,2.777-0.351c0.127-0.053,0.233-0.147,0.302-0.268c1.421-2.441,0.149-4.624-0.846-5.25
			C29.778,51.166,29.661,51.134,29.545,51.134L29.545,51.134z"/>
	</g>
	<path fill="#502C16" d="M30.643,54.994c-1.043,0.391-2.181,0.386-2.181,0.386l-0.81,0.821v0.263c0,0,1.817,0,2.528-0.301
		C30.414,55.758,30.562,55.367,30.643,54.994z"/>
	<g>
		<path fill="#EDB886" d="M47.053,59.346l0.158-0.278c0.939-1.662,1.195-3.084,0.76-4.229c-0.631-1.657-2.576-2.373-2.596-2.378
			l-0.295-0.107l0.1-0.296l0.789-2.311l0.301,0.103c0.131,0.045,3.18,1.116,4.279,4.008c0.742,1.948,0.426,4.156-0.936,6.569
			l-0.156,0.275L47.053,59.346z"/>
		<g>
			<path fill="#020202" d="M46.168,50.152c0.121,0.043,3.035,1.064,4.084,3.818c0.705,1.854,0.398,3.973-0.916,6.299l-1.848-1.044
				c0.986-1.75,1.25-3.263,0.781-4.499c-0.688-1.803-2.768-2.559-2.789-2.566L46.168,50.152 M45.77,49.344l-0.205,0.604
				l-0.686,2.008l-0.209,0.605l0.6,0.2c0.088,0.033,1.84,0.711,2.404,2.193c0.398,1.049,0.15,2.381-0.74,3.961l-0.314,0.553
				l0.557,0.313l1.848,1.044l0.553,0.312l0.314-0.556c1.41-2.496,1.732-4.797,0.957-6.837c-1.154-3.026-4.34-4.148-4.475-4.196
				L45.77,49.344L45.77,49.344z"/>
		</g>
	</g>
	<g>
		<path fill="#B78053" d="M49.76,59.453c0.947-2.008,1.113-3.848,0.492-5.482c-0.686-1.798-2.166-2.859-3.145-3.39l-0.412,1.211
			c0.02,0.005,2.1,0.762,2.787,2.563c0.471,1.237,0.207,2.752-0.781,4.499L49.76,59.453z"/>
	</g>
	<g>
		<path fill="#9E9E9E" d="M34.278,63.536c-0.177,0-0.319-0.143-0.319-0.318v-5.923l-0.983-6.767
			c-0.016-0.11,0.027-0.221,0.113-0.293l1.584-1.292c0.668-0.884,1.683-1.39,2.788-1.39h6.193c1.092,0,2.133,0.519,2.793,1.395
			l1.576,1.287c0.086,0.072,0.131,0.18,0.113,0.293l-0.98,6.749v5.94c0,0.176-0.143,0.318-0.318,0.318H34.278L34.278,63.536z"/>
		<path fill="#020202" d="M43.654,47.872c1.051,0,1.98,0.511,2.561,1.297l1.607,1.314l-0.984,6.771v5.963c-2.246,0-9.627,0-12.561,0
			v-5.942l-0.986-6.792l1.613-1.319c0.58-0.781,1.508-1.292,2.558-1.292H43.654 M43.654,47.236h-6.193
			c-1.175,0-2.298,0.553-3.02,1.481l-1.554,1.272c-0.173,0.14-0.259,0.362-0.228,0.583l0.981,6.747v5.897
			c0,0.354,0.284,0.639,0.636,0.639h12.561c0.352,0,0.637-0.285,0.637-0.639v-5.915l0.977-6.729
			c0.031-0.221-0.053-0.443-0.227-0.583l-1.549-1.265C45.955,47.789,44.832,47.236,43.654,47.236L43.654,47.236z"/>
	</g>
	<path opacity="0.6" fill="#7E7E7E" enable-background="new    " d="M41.229,68.951c9.783,0,17.713,1.267,17.713,2.837
		c0,1.564-7.93,2.834-17.713,2.834c-9.781,0-17.711-1.27-17.711-2.834C23.517,70.218,31.447,68.951,41.229,68.951z"/>
	<path fill="#EDB886" stroke="#020202" stroke-width="3" stroke-linecap="round" stroke-miterlimit="10" d="M38.026,43.681
		c0,0,2.602,1.302,5.583,0"/>
	<g>
		<path fill="#464646" d="M42.104,72.594c-0.174,0-0.316-0.143-0.316-0.318v-4.696c0-0.679-0.551-1.229-1.229-1.229
			c-0.677,0-1.228,0.551-1.228,1.229v4.696c0,0.176-0.143,0.318-0.318,0.318h-3.672c-0.161,0-0.296-0.12-0.316-0.283l-1.061-9.055
			c-0.01-0.09,0.018-0.181,0.078-0.248s0.147-0.107,0.239-0.107h12.56c0.09,0,0.178,0.04,0.238,0.107s0.088,0.158,0.078,0.248
			l-1.062,9.055c-0.018,0.163-0.154,0.283-0.314,0.283H42.104z"/>
		<g>
			<path fill="#020202" d="M46.838,63.218l-1.061,9.058h-3.674v-4.696c0-0.854-0.691-1.547-1.546-1.547s-1.546,0.693-1.546,1.547
				v4.696h-3.672l-1.062-9.058H46.838 M46.838,62.582H34.277c-0.181,0-0.354,0.078-0.476,0.213c-0.12,0.138-0.178,0.318-0.156,0.498
				l1.062,9.056c0.036,0.322,0.309,0.563,0.632,0.563h3.672c0.352,0,0.636-0.286,0.636-0.637v-4.696
				c0-0.503,0.409-0.911,0.911-0.911c0.503,0,0.911,0.408,0.911,0.911v4.696c0,0.351,0.285,0.637,0.635,0.637h3.674
				c0.322,0,0.594-0.243,0.631-0.563l1.062-9.056c0.021-0.18-0.037-0.36-0.156-0.498C47.193,62.66,47.02,62.582,46.838,62.582
				L46.838,62.582z"/>
		</g>
	</g>
	<path fill="#282828" d="M45.426,64.635c0,1.337-0.867,2.807-2.854,3.112c1.121,0.759,2.357,1.139,3.586,1.276l0.68-5.806h-2.381
		C44.99,63.624,45.426,64.112,45.426,64.635z"/>
	<g>
		<polygon fill="#75401B" points="34.861,68.195 35.339,72.275 39.011,72.275 39.011,68.195 		"/>
		<g>
			<path fill="#75401B" d="M34.483,69.55c-0.699,0-1.267-0.568-1.267-1.267c0-0.701,0.568-1.27,1.267-1.27h5.125
				c0.699,0,1.269,0.568,1.269,1.27c0,0.698-0.569,1.267-1.269,1.267H34.483z"/>
			<path fill="#020202" d="M39.608,67.331c0.525,0,0.95,0.429,0.95,0.952c0,0.522-0.424,0.948-0.95,0.948h-5.125
				c-0.524,0-0.949-0.426-0.949-0.948c0-0.523,0.425-0.952,0.949-0.952H39.608 M39.608,66.695h-5.125
				c-0.875,0-1.585,0.711-1.585,1.588c0,0.873,0.71,1.584,1.585,1.584h5.125c0.875,0,1.585-0.711,1.585-1.584
				C41.193,67.406,40.482,66.695,39.608,66.695L39.608,66.695z"/>
		</g>
		<polygon fill="#75401B" points="46.254,68.195 45.777,72.275 42.104,72.275 42.104,68.195 		"/>
		<g>
			<path fill="#75401B" d="M34.674,72.594c-0.175,0-0.318-0.143-0.318-0.318c0-1.276,0.844-2.315,1.883-2.315h1.875
				c1.039,0,1.884,1.039,1.884,2.315c0,0.176-0.143,0.318-0.318,0.318H34.674z"/>
			<path fill="#020202" d="M38.114,70.278c0.864,0,1.565,0.894,1.565,1.997h-5.006c0-1.104,0.7-1.997,1.565-1.997H38.114
				 M38.114,69.643h-1.875c-1.214,0-2.202,1.179-2.202,2.633c0,0.351,0.285,0.637,0.637,0.637h5.006
				c0.352,0,0.637-0.286,0.637-0.637C40.316,70.821,39.329,69.643,38.114,69.643L38.114,69.643z"/>
		</g>
		<g>
			<path fill="#75401B" d="M41.428,72.594c-0.176,0-0.318-0.143-0.318-0.318c0-1.276,0.844-2.315,1.883-2.315h1.875
				c1.039,0,1.883,1.039,1.883,2.315c0,0.176-0.143,0.318-0.318,0.318H41.428z"/>
			<path fill="#020202" d="M44.867,70.278c0.865,0,1.564,0.894,1.564,1.997h-5.004c0-1.104,0.699-1.997,1.564-1.997H44.867
				 M44.867,69.643h-1.875c-1.215,0-2.203,1.179-2.203,2.633c0,0.351,0.285,0.637,0.638,0.637h5.004
				c0.354,0,0.637-0.286,0.637-0.637C47.068,70.821,46.08,69.643,44.867,69.643L44.867,69.643z"/>
		</g>
		<path fill="#502C16" d="M39.608,67.331h-2.279c0.444,0.23,0.873,0.541,0.923,0.895c0.052,0.37-0.146,0.721-0.563,1.006h1.92
			c0.525,0,0.95-0.426,0.95-0.948C40.559,67.757,40.133,67.331,39.608,67.331z"/>
		<g>
			<path fill="#75401B" d="M41.508,69.55c-0.7,0-1.269-0.568-1.269-1.267c0-0.701,0.569-1.27,1.269-1.27h5.123
				c0.699,0,1.27,0.568,1.27,1.27c0,0.698-0.57,1.267-1.27,1.267H41.508z"/>
			<path fill="#020202" d="M46.631,67.331c0.525,0,0.951,0.429,0.951,0.952c0,0.522-0.426,0.948-0.951,0.948h-5.123
				c-0.525,0-0.95-0.426-0.95-0.948c0-0.523,0.425-0.952,0.95-0.952H46.631 M46.631,66.695h-5.123c-0.875,0-1.587,0.711-1.587,1.588
				c0,0.873,0.712,1.584,1.587,1.584h5.123c0.875,0,1.586-0.711,1.586-1.584C48.217,67.406,47.506,66.695,46.631,66.695
				L46.631,66.695z"/>
		</g>
		<path fill="#502C16" d="M46.631,67.331h-2.279c0.443,0.23,0.873,0.541,0.924,0.895c0.051,0.37-0.146,0.721-0.562,1.006h1.918
			c0.525,0,0.951-0.426,0.951-0.948C47.582,67.757,47.156,67.331,46.631,67.331z"/>
		<path fill="#502C16" d="M39.68,72.275c0-1.104-0.701-1.997-1.565-1.997h-0.45c0.583,0.13,0.876,0.453,0.985,0.786
			c0.121,0.37,0.101,0.815-0.132,1.211H39.68z"/>
		<path fill="#502C16" d="M46.432,72.275c0-1.104-0.699-1.997-1.564-1.997h-0.449c0.582,0.13,0.875,0.453,0.984,0.786
			c0.121,0.37,0.102,0.815-0.133,1.211H46.432z"/>
	</g>
	<path fill="#502C16" d="M42.752,63.218h4.086V61.12h-4.076c0.498,0.285,0.844,0.586,0.85,0.882
		C43.619,62.377,43.299,62.808,42.752,63.218z"/>
	<path fill="#747474" d="M47.822,50.483l-1.607-1.314c-0.578-0.786-1.51-1.297-2.561-1.297h-2.523l-0.136,2.205
		c0,0,6.152-1.68,3.8,10.888c0.736,0.053,1.416,0.003,2.043-0.128v-3.582L47.822,50.483z"/>
	<g>
		<path fill="#75401B" d="M35.349,60.034c-0.176,0-0.319-0.144-0.319-0.321V47.624c0-0.175,0.143-0.318,0.319-0.318h2.472
			c0.175,0,0.318,0.144,0.318,0.318v12.089c0,0.178-0.143,0.321-0.318,0.321H35.349z"/>
		<path fill="#020202" d="M37.821,47.624v12.089h-2.472V47.624H37.821 M37.821,46.988h-2.472c-0.353,0-0.637,0.285-0.637,0.636
			v12.089c0,0.354,0.285,0.639,0.637,0.639h2.472c0.352,0,0.636-0.285,0.636-0.639V47.624
			C38.458,47.273,38.173,46.988,37.821,46.988L37.821,46.988z"/>
	</g>
	<g>
		<rect x="37.329" y="47.624" fill="#4E2C16" width="0.493" height="12.089"/>
	</g>
	<g>
		<path fill="#EDB886" d="M40.558,50.801c-9.294,0-16.855-10.276-16.855-22.907c0-8.55,7.561-15.506,16.855-15.506
			c9.294,0,16.856,6.956,16.856,15.506C57.414,40.524,49.852,50.801,40.558,50.801z"/>
		<path fill="#020202" d="M40.558,12.706c9.134,0,16.538,6.8,16.538,15.188c0,12.476-7.404,22.59-16.538,22.59
			c-9.133,0-16.538-10.114-16.538-22.59C24.02,19.505,31.424,12.706,40.558,12.706 M40.558,12.069
			c-9.47,0-17.175,7.099-17.175,15.825c0,6.168,1.765,11.975,4.967,16.349c3.247,4.436,7.582,6.877,12.208,6.877
			c4.626,0,8.962-2.441,12.208-6.877c3.203-4.374,4.967-10.181,4.967-16.349C57.732,19.168,50.027,12.069,40.558,12.069
			L40.558,12.069z"/>
	</g>
	<path fill="#B78053" d="M52.08,26.156c0,0,3.023,20.847-12.469,24.29c0.313,0.022,0.628,0.038,0.946,0.038
		c9.134,0,16.538-10.114,16.538-22.59c0-0.368-0.02-0.731-0.049-1.094l-2.133-2.721L52.08,26.156z"/>
	<circle fill="#020202" cx="32.922" cy="32.3" r="1.519"/>
	<circle fill="#020202" cx="48.535" cy="32.3" r="1.519"/>
	<g>
		<path fill="#75401B" d="M34.278,61.416c-0.177,0-0.319-0.143-0.319-0.318v-2.101c0-0.175,0.143-0.317,0.319-0.317h12.56
			c0.176,0,0.318,0.143,0.318,0.317v2.101c0,0.176-0.143,0.318-0.318,0.318H34.278z"/>
		<g>
			<path fill="#020202" d="M46.838,58.997v2.101H34.277v-2.101H46.838 M46.838,58.361H34.277c-0.351,0-0.636,0.285-0.636,0.636
				v2.101c0,0.351,0.285,0.636,0.636,0.636h12.561c0.352,0,0.637-0.285,0.637-0.636v-2.101
				C47.475,58.646,47.189,58.361,46.838,58.361L46.838,58.361z"/>
		</g>
	</g>
	<g>
		<path fill="#75401B" d="M39.989,60.75c-0.57,0-1.035-0.464-1.035-1.034s0.464-1.036,1.035-1.036h1.585
			c0.57,0,1.035,0.466,1.035,1.036s-0.465,1.034-1.035,1.034H39.989z"/>
		<g>
			<path fill="#020202" d="M41.574,58.997c0.395,0,0.717,0.323,0.717,0.719s-0.322,0.716-0.717,0.716h-1.585
				c-0.395,0-0.716-0.32-0.716-0.716s0.321-0.719,0.716-0.719H41.574 M41.574,58.361h-1.585c-0.746,0-1.353,0.606-1.353,1.354
				c0,0.746,0.607,1.352,1.353,1.352h1.585c0.746,0,1.354-0.605,1.354-1.352C42.928,58.968,42.32,58.361,41.574,58.361
				L41.574,58.361z"/>
		</g>
	</g>
	<path fill="#020202" d="M39.863,59.811c0,0.184-0.149,0.331-0.333,0.331h-1.126c-0.183,0-0.332-0.147-0.332-0.331l0,0
		c0-0.185,0.149-0.333,0.332-0.333h1.126C39.714,59.478,39.863,59.626,39.863,59.811L39.863,59.811z"/>
	<g>
		<path fill="#9E9E9E" d="M34.278,65.691c-0.177,0-0.319-0.143-0.319-0.317V61.12c0-0.175,0.143-0.317,0.319-0.317h12.579
			c0.174,0,0.318,0.143,0.318,0.317v4.254c0,0.175-0.145,0.317-0.318,0.317H34.278z"/>
		<g>
			<path fill="#020202" d="M46.857,61.12v4.254H34.277V61.12H46.857 M46.857,60.484H34.277c-0.351,0-0.636,0.285-0.636,0.636v4.254
				c0,0.351,0.285,0.636,0.636,0.636h12.581c0.352,0,0.637-0.285,0.637-0.636V61.12C47.494,60.77,47.209,60.484,46.857,60.484
				L46.857,60.484z"/>
		</g>
	</g>
	<path fill="#747474" d="M45.178,65.374h1.68V61.12h-6.584C40.273,61.12,44.127,60.562,45.178,65.374z"/>
	<g>
		<path fill="#75401B" d="M46.857,63.256c-2.312,0-4.193-1.88-4.193-4.191c0-2.312,1.881-4.192,4.193-4.192
			c2.311,0,4.191,1.88,4.191,4.192C51.049,61.376,49.168,63.256,46.857,63.256z"/>
		<g>
			<path fill="#020202" d="M46.857,55.189c2.139,0,3.873,1.735,3.873,3.875c0,2.139-1.734,3.873-3.873,3.873
				c-2.141,0-3.875-1.734-3.875-3.873C42.982,56.925,44.717,55.189,46.857,55.189 M46.857,54.554c-2.488,0-4.51,2.022-4.51,4.511
				c0,2.486,2.021,4.509,4.51,4.509c2.486,0,4.512-2.022,4.512-4.509C51.369,56.576,49.344,54.554,46.857,54.554L46.857,54.554z"/>
		</g>
	</g>
	<path fill="#502C16" d="M50.73,59.064c0-0.01,0-0.015,0-0.022c-1.25,1.9-3.447,2.03-4.855,1.188
		c-1.498-0.901-1.877-2.592-1.658-3.996c-0.758,0.706-1.234,1.713-1.234,2.831c0,2.139,1.734,3.873,3.875,3.873
		C48.996,62.938,50.73,61.203,50.73,59.064z"/>
	<path fill="#B78053" d="M24.604,34.331c0,0,0.717-6.661,1.588-7.021c1.675,2.5,3.671,3.15,3.671,3.15
		c-0.745-1.042-0.762-7.342-0.762-7.342c2.413,3.646,4.83,4.937,4.83,4.937c-0.745-1.067-0.64-5.433-0.64-5.433
		c1.434,2.43,4.906,5.159,9.221,5.854c-1.686-2.728-1.956-3.571-1.956-3.571c2.651,2.877,5.594,4.272,10.174,4.74
		c-1.371-1.466-1.621-1.863-1.621-1.863c2.779,2.431,7.986,5.159,7.986,5.159c-2.527-10.516-10.713-13.89-10.713-13.89
		l-12.651-1.132l-5.408,2.72l-3.72,4.118l-1.687,3.72L24.604,34.331z"/>
	<g>
		<path fill="#EAB630" d="M24.568,35.086c-2.143-3.33-3.274-7.219-3.274-11.25c0-11.118,8.641-20.164,19.264-20.164
			c10.622,0,19.265,9.046,19.265,20.164c0,4.03-1.133,7.919-3.273,11.25l-1.014,1.574l0.436-1.821
			c0.158-0.66,0.297-1.357,0.414-2.074c-1.941-1.56-4.939-4.062-6.793-6.051c0.344,0.838,0.822,1.856,1.406,2.757l0.469,0.721
			l-0.824-0.242c-2.746-0.806-6.701-2.887-9.256-5.357c0.256,0.932,0.668,2.253,1.191,3.323l0.428,0.878l-0.863-0.458
			c-3.052-1.613-5.282-3.197-7.115-5.06c0.038,0.883,0.099,2.272,0.151,3.273l0.033,0.612l-0.52-0.324
			c-1.875-1.172-3.153-2.759-3.847-3.781c0.126,1.454,0.638,3.304,1.649,4.822l0.422,0.634l-0.748-0.145
			c-0.125-0.024-2.834-0.569-4.924-2.371c0.12,1.028,0.449,2.874,1.341,4.639l0.321,0.633l-0.686-0.182
			c-1.388-0.367-2.687-1.156-3.872-2.346c0.058,2.081,0.323,4.127,0.795,6.097l0.435,1.821L24.568,35.086z"/>
		<path fill="#020202" d="M40.558,3.993c10.464,0,18.946,8.884,18.946,19.844c0,4.102-1.189,7.913-3.225,11.077
			c0.178-0.743,0.328-1.505,0.449-2.28c-2.328-1.866-6.68-5.487-8.072-7.551c0,0,0.766,2.547,2.076,4.563
			c-3.256-0.955-7.678-3.502-9.951-6.156c0,0,0.576,2.654,1.509,4.567c-3.205-1.696-5.604-3.399-7.617-5.616
			c0,0,0.103,2.535,0.187,4.127c-2.888-1.805-4.349-4.67-4.349-4.67c-0.125,1.699,0.444,4.246,1.717,6.159c0,0-3.29-0.64-5.37-2.868
			c0,0,0.063,2.865,1.443,5.593c-1.802-0.478-3.235-1.655-4.283-2.862c0.002,2.442,0.289,4.792,0.816,6.995
			c-2.037-3.164-3.225-6.975-3.225-11.077C21.612,12.877,30.094,3.993,40.558,3.993 M40.558,3.355
			c-10.797,0-19.583,9.188-19.583,20.481c0,4.091,1.15,8.041,3.325,11.422l2.027,3.147l-0.872-3.641
			c-0.407-1.704-0.661-3.467-0.755-5.259c1.067,0.933,2.22,1.566,3.44,1.89l1.372,0.364l-0.641-1.267
			c-0.678-1.342-1.023-2.731-1.198-3.754c2.031,1.459,4.318,1.918,4.435,1.941l1.496,0.291l-0.844-1.269
			c-0.711-1.069-1.168-2.306-1.411-3.44c0.752,0.923,1.81,1.992,3.174,2.844l1.039,0.649l-0.065-1.222
			c-0.039-0.731-0.081-1.669-0.117-2.465c1.745,1.645,3.846,3.085,6.612,4.55l1.729,0.914l-0.857-1.756
			c-0.334-0.683-0.621-1.471-0.852-2.192c2.562,2.167,6.045,3.94,8.541,4.672l1.648,0.483l-0.938-1.442
			c-0.223-0.347-0.434-0.712-0.623-1.077c1.729,1.658,3.861,3.436,5.398,4.675c-0.109,0.646-0.236,1.273-0.379,1.869l-0.871,3.641
			l2.025-3.148c2.176-3.381,3.326-7.33,3.326-11.421C60.141,12.544,51.355,3.355,40.558,3.355L40.558,3.355z"/>
	</g>
	<path fill="#BF912D" d="M42.291,4.076c3.924,1.818,8.834,5.057,10.279,10.252c1.799,6.469,1.105,11.354,0.055,14.857
		c1.469,1.308,3.01,2.571,4.102,3.448c-0.121,0.775-0.27,1.537-0.447,2.28c2.035-3.164,3.225-6.975,3.225-11.077
		C59.504,13.49,51.941,4.993,42.291,4.076z"/>
	<g>
		<path fill="#A57A2B" d="M30.16,8.155c0,0,0.165-0.03,0.474-0.084c0.311-0.051,0.766-0.127,1.349-0.193
			c1.167-0.13,2.843-0.289,4.863-0.266c1.009,0.01,2.104,0.06,3.257,0.187c1.153,0.125,2.366,0.316,3.598,0.626
			c1.232,0.309,2.49,0.718,3.703,1.294c1.213,0.572,2.387,1.3,3.424,2.2c0.268,0.215,0.506,0.466,0.748,0.707l0.182,0.182
			c0.07,0.074,0.115,0.128,0.174,0.193l0.332,0.375c0.223,0.244,0.428,0.528,0.643,0.791c0.211,0.267,0.396,0.546,0.594,0.817
			c0.766,1.102,1.373,2.278,1.873,3.447c0.502,1.169,0.871,2.344,1.154,3.471c0.281,1.126,0.465,2.21,0.586,3.214
			c0.244,2.01,0.215,3.698,0.16,4.87c-0.027,0.587-0.078,1.047-0.113,1.358c-0.037,0.313-0.064,0.478-0.064,0.478
			s0.014-0.167,0.029-0.481c0.016-0.313,0.023-0.773,0.025-1.358c0-1.169-0.086-2.842-0.4-4.817
			c-0.156-0.985-0.379-2.044-0.684-3.144c-0.307-1.099-0.705-2.234-1.207-3.368c-0.502-1.134-1.125-2.257-1.865-3.322
			c-0.193-0.26-0.377-0.532-0.578-0.785l-0.305-0.379c-0.098-0.127-0.203-0.253-0.318-0.377l-0.332-0.374
			c-0.053-0.059-0.117-0.132-0.162-0.179l-0.174-0.172c-0.234-0.227-0.457-0.464-0.715-0.668c-0.982-0.861-2.102-1.566-3.27-2.125
			c-1.168-0.558-2.377-0.989-3.578-1.308c-2.402-0.64-4.733-0.888-6.728-0.99C34.836,7.882,33.163,7.925,31.995,8
			c-0.584,0.039-1.043,0.073-1.355,0.104C30.327,8.137,30.16,8.155,30.16,8.155z"/>
	</g>
	<g>
		<path fill="#C4952D" d="M29.099,8.897c0,0-0.128,0.295-0.326,0.817c-0.098,0.261-0.212,0.58-0.337,0.948
			c-0.126,0.367-0.251,0.786-0.39,1.242c-0.128,0.458-0.262,0.956-0.383,1.486c-0.126,0.529-0.224,1.093-0.323,1.675
			c-0.084,0.585-0.158,1.191-0.192,1.808c-0.045,0.617-0.041,1.244-0.01,1.869c0.028,0.31,0.03,0.625,0.079,0.931
			c0.02,0.155,0.04,0.309,0.059,0.462c0.023,0.153,0.056,0.304,0.083,0.454c0.112,0.604,0.272,1.188,0.46,1.74
			c0.09,0.278,0.217,0.538,0.314,0.802c0.111,0.258,0.241,0.501,0.356,0.745c0.123,0.238,0.267,0.458,0.391,0.679
			c0.123,0.223,0.277,0.415,0.405,0.613c0.068,0.095,0.128,0.195,0.2,0.283c0.071,0.087,0.14,0.174,0.208,0.258
			c0.137,0.167,0.257,0.334,0.387,0.476c0.268,0.277,0.485,0.539,0.688,0.73c0.405,0.381,0.637,0.606,0.637,0.606
			s-0.263-0.181-0.72-0.511c-0.227-0.167-0.479-0.399-0.779-0.655c-0.147-0.131-0.287-0.288-0.444-0.444
			c-0.076-0.08-0.156-0.162-0.236-0.246c-0.08-0.085-0.15-0.182-0.229-0.275c-0.149-0.192-0.325-0.38-0.471-0.6
			c-0.146-0.218-0.306-0.442-0.451-0.681c-0.134-0.246-0.284-0.494-0.417-0.758c-0.061-0.134-0.124-0.27-0.186-0.407
			c-0.06-0.138-0.13-0.274-0.178-0.42c-0.053-0.146-0.105-0.29-0.159-0.438l-0.08-0.221l-0.065-0.227
			c-0.044-0.152-0.087-0.305-0.131-0.458s-0.068-0.314-0.103-0.471c-0.031-0.158-0.068-0.316-0.093-0.476
			c-0.022-0.161-0.044-0.322-0.068-0.483c-0.054-0.322-0.062-0.649-0.094-0.975c-0.023-0.653-0.02-1.306,0.034-1.945
			c0.039-0.64,0.149-1.261,0.254-1.86c0.118-0.597,0.256-1.167,0.415-1.699c0.15-0.535,0.328-1.03,0.497-1.483
			c0.344-0.904,0.695-1.63,0.958-2.126C28.923,9.167,29.099,8.897,29.099,8.897z"/>
	</g>
	<path fill="#BF912D" d="M24.835,34.914c-0.323-1.352-0.554-2.761-0.687-4.211c-0.974-1-1.698-2.171-2.236-3.343
		C22.383,30.117,23.397,32.677,24.835,34.914z"/>
	<g>
		<path fill="#BF912D" d="M50.73,29.645c-0.469-0.722-0.867-1.512-1.186-2.229c-4.357-0.786-8.764-3.927-8.764-3.927
			C43.055,26.143,47.477,28.689,50.73,29.645z"/>
	</g>
	<g>
		<path fill="#BF912D" d="M41.301,25.447c-2.299,0.499-6.627-3.008-6.627-3.008c2.013,2.218,4.411,3.921,7.617,5.616
			C41.889,27.234,41.553,26.274,41.301,25.447z"/>
	</g>
	<path fill="#BF912D" d="M34.772,24.727c-1.903,0.091-4.26-2.829-4.26-2.829l0.073,0.135c0.328,0.586,1.761,2.963,4.276,4.535
		C34.832,26.019,34.801,25.358,34.772,24.727z"/>
	<path fill="#BF912D" d="M40.781,23.49c0,0-6.588-5.625-9.825-12.31c3.979,5.253,11.761,14.167,18.589,16.237
		c-1.938,0.009-4.422-0.849-4.422-0.849L40.781,23.49z"/>
	<g>
		<path fill="#A57A2B" d="M29.577,8.526c0,0,0.282,0.351,0.777,0.966c0.249,0.305,0.55,0.677,0.896,1.102
			c0.349,0.422,0.743,0.899,1.173,1.419c0.439,0.513,0.902,1.078,1.406,1.663c0.502,0.586,1.034,1.204,1.591,1.834
			c0.279,0.316,0.557,0.641,0.849,0.961c0.291,0.321,0.585,0.646,0.882,0.974c0.583,0.664,1.213,1.303,1.824,1.959
			c0.615,0.654,1.252,1.286,1.867,1.919c0.639,0.608,1.252,1.224,1.864,1.801c0.629,0.558,1.217,1.119,1.797,1.626
			c0.592,0.493,1.146,0.965,1.658,1.401c0.535,0.41,1.023,0.786,1.457,1.119c0.109,0.083,0.213,0.165,0.314,0.243
			c0.104,0.077,0.207,0.142,0.303,0.21c0.197,0.133,0.377,0.256,0.539,0.367c0.65,0.449,1.02,0.705,1.02,0.705
			s-0.395-0.217-1.086-0.598c-0.172-0.097-0.363-0.203-0.572-0.32c-0.102-0.058-0.213-0.116-0.322-0.186
			c-0.107-0.07-0.219-0.145-0.334-0.22c-0.457-0.303-0.977-0.646-1.539-1.028c-0.543-0.407-1.127-0.851-1.742-1.327
			c-0.605-0.488-1.227-1.025-1.871-1.576c-0.627-0.57-1.271-1.164-1.916-1.777c-0.625-0.633-1.274-1.264-1.896-1.918
			c-0.611-0.667-1.24-1.316-1.821-1.989c-0.593-0.664-1.161-1.329-1.7-1.981c-0.549-0.645-1.052-1.29-1.532-1.899
			c-0.486-0.605-0.917-1.198-1.325-1.737c-0.803-1.09-1.449-2.015-1.885-2.672c-0.222-0.327-0.386-0.59-0.501-0.767
			C29.637,8.622,29.577,8.526,29.577,8.526z"/>
	</g>
	<path fill="#BF912D" d="M30.16,8.526c0,0,17.684,4.455,23.15,20.27c0.451,1.308,2.121-3.614,2.506-2.175
		C55.816,22.908,51.152,8.526,30.16,8.526z"/>
	<path fill="#BF912D" d="M31.118,25.783c-1.979,1.307-4.258-0.594-4.258-0.594c2.08,2.229,5.37,2.867,5.37,2.867
		C31.765,27.359,31.396,26.577,31.118,25.783z"/>
	<path fill="#BF912D" d="M27.464,28.649c-1.898,0.521-3.444-0.729-3.444-0.729c1.048,1.207,2.481,2.384,4.283,2.862
		C27.939,30.062,27.668,29.332,27.464,28.649z"/>
	<g>
		<path fill="#F1CA89" d="M29.577,8.526c0,0,0.451,1.351,1.262,3.313c0.202,0.491,0.433,1.017,0.677,1.573
			c0.248,0.554,0.52,1.133,0.808,1.729c0.284,0.598,0.606,1.2,0.928,1.815c0.162,0.307,0.335,0.611,0.503,0.918
			c0.178,0.302,0.35,0.609,0.534,0.909c0.361,0.604,0.731,1.203,1.123,1.774c0.193,0.288,0.389,0.569,0.586,0.846
			c0.192,0.28,0.395,0.546,0.594,0.809c0.195,0.268,0.404,0.514,0.6,0.764c0.193,0.252,0.398,0.485,0.594,0.715
			c0.193,0.233,0.394,0.449,0.587,0.658c0.189,0.213,0.375,0.416,0.564,0.601c0.367,0.382,0.721,0.711,1.034,1.008
			c0.319,0.288,0.605,0.532,0.837,0.738c0.485,0.391,0.76,0.614,0.76,0.614s-0.305-0.182-0.834-0.512
			c-0.255-0.18-0.572-0.389-0.919-0.653c-0.172-0.135-0.354-0.278-0.545-0.429c-0.195-0.149-0.381-0.327-0.585-0.502
			c-0.204-0.174-0.409-0.365-0.616-0.566c-0.21-0.2-0.424-0.41-0.634-0.637c-0.427-0.442-0.862-0.927-1.283-1.451
			c-0.21-0.261-0.427-0.526-0.631-0.805c-0.104-0.138-0.209-0.277-0.314-0.417c-0.1-0.144-0.2-0.288-0.301-0.433
			c-0.405-0.579-0.789-1.184-1.162-1.795c-0.184-0.307-0.356-0.622-0.534-0.93c-0.168-0.314-0.341-0.625-0.502-0.938
			c-0.16-0.314-0.32-0.624-0.463-0.937c-0.15-0.312-0.292-0.621-0.428-0.928c-0.277-0.609-0.516-1.211-0.738-1.784
			c-0.221-0.573-0.415-1.119-0.581-1.628c-0.17-0.507-0.31-0.977-0.429-1.395c-0.121-0.417-0.211-0.785-0.286-1.088
			C29.637,8.877,29.577,8.526,29.577,8.526z"/>
	</g>
	<g>
		<path fill="#F1CA89" d="M28.303,9.481c0,0-0.054,0.068-0.147,0.202c-0.095,0.132-0.227,0.332-0.393,0.586
			c-0.166,0.253-0.354,0.57-0.564,0.936c-0.203,0.371-0.43,0.789-0.652,1.257c-0.227,0.466-0.452,0.98-0.666,1.533
			c-0.222,0.549-0.407,1.147-0.595,1.763c-0.167,0.623-0.327,1.27-0.434,1.938c-0.067,0.331-0.1,0.671-0.146,1.01
			c-0.036,0.34-0.059,0.682-0.08,1.024c-0.025,0.685-0.031,1.373,0.031,2.045c0.013,0.167,0.028,0.335,0.041,0.502
			c0.023,0.165,0.045,0.331,0.067,0.495c0.023,0.163,0.041,0.328,0.069,0.488c0.032,0.16,0.062,0.319,0.094,0.478
			c0.033,0.158,0.058,0.316,0.096,0.469c0.04,0.153,0.078,0.305,0.118,0.455c0.038,0.15,0.076,0.299,0.113,0.447
			c0.046,0.144,0.093,0.287,0.138,0.428c0.168,0.567,0.386,1.083,0.57,1.568c0.106,0.236,0.209,0.463,0.307,0.677
			c0.048,0.108,0.095,0.214,0.14,0.316c0.052,0.099,0.102,0.196,0.15,0.289c0.199,0.372,0.354,0.708,0.518,0.964
			c0.31,0.522,0.482,0.825,0.482,0.825s-0.203-0.281-0.553-0.782c-0.182-0.245-0.359-0.57-0.586-0.932
			c-0.055-0.091-0.112-0.185-0.17-0.281c-0.053-0.1-0.108-0.203-0.164-0.308c-0.11-0.213-0.226-0.437-0.346-0.668
			c-0.211-0.48-0.459-0.995-0.648-1.568c-0.051-0.142-0.103-0.286-0.155-0.432c-0.044-0.147-0.087-0.298-0.133-0.45
			c-0.043-0.153-0.088-0.306-0.132-0.463c-0.043-0.156-0.073-0.316-0.109-0.477c-0.036-0.161-0.071-0.323-0.107-0.487
			c-0.032-0.165-0.054-0.332-0.082-0.499c-0.026-0.168-0.052-0.337-0.078-0.506c-0.016-0.171-0.032-0.342-0.046-0.516
			c-0.068-0.69-0.069-1.396-0.046-2.099c0.024-0.351,0.05-0.704,0.09-1.052c0.048-0.346,0.085-0.694,0.155-1.033
			c0.112-0.684,0.298-1.34,0.481-1.973c0.201-0.626,0.414-1.226,0.659-1.776c0.113-0.279,0.246-0.542,0.364-0.798
			c0.131-0.251,0.247-0.498,0.377-0.726c0.246-0.464,0.505-0.87,0.734-1.227c0.237-0.354,0.447-0.659,0.632-0.901
			c0.181-0.246,0.336-0.429,0.441-0.553C28.244,9.545,28.303,9.481,28.303,9.481z"/>
	</g>
	<g>
		<path fill="#F1CA89" d="M30.599,8.649c0,0,0.141,0.007,0.404,0.03c0.264,0.022,0.65,0.058,1.141,0.125
			c0.488,0.071,1.083,0.159,1.759,0.289c0.339,0.06,0.698,0.14,1.077,0.217c0.377,0.084,0.772,0.18,1.184,0.286
			c0.821,0.214,1.708,0.467,2.628,0.786c0.463,0.152,0.93,0.334,1.411,0.51c0.237,0.097,0.477,0.195,0.719,0.293
			c0.244,0.097,0.486,0.201,0.726,0.314c0.242,0.11,0.486,0.221,0.734,0.332c0.242,0.121,0.484,0.243,0.73,0.364
			c0.496,0.236,0.977,0.518,1.465,0.79c0.248,0.133,0.48,0.292,0.721,0.437c0.238,0.151,0.486,0.291,0.719,0.453
			c0.463,0.326,0.949,0.629,1.395,0.985l0.676,0.522l0.648,0.555c0.439,0.36,0.838,0.764,1.242,1.153
			c0.207,0.191,0.396,0.397,0.584,0.604c0.186,0.207,0.373,0.412,0.557,0.616c0.357,0.419,0.686,0.853,1.021,1.269
			c0.303,0.441,0.611,0.868,0.891,1.299c0.262,0.444,0.516,0.877,0.764,1.3c0.215,0.439,0.426,0.866,0.631,1.278
			c0.188,0.419,0.342,0.837,0.504,1.23c0.17,0.391,0.281,0.785,0.398,1.155c0.059,0.186,0.113,0.366,0.168,0.541
			s0.109,0.344,0.143,0.514c0.076,0.336,0.15,0.651,0.217,0.942c0.064,0.291,0.137,0.555,0.166,0.802
			c0.08,0.488,0.131,0.874,0.17,1.135c0.037,0.262,0.057,0.4,0.057,0.4s-0.031-0.138-0.092-0.396
			c-0.059-0.256-0.152-0.634-0.256-1.113c-0.045-0.242-0.133-0.5-0.217-0.786c-0.084-0.283-0.176-0.589-0.273-0.917
			c-0.043-0.165-0.107-0.33-0.172-0.499c-0.066-0.17-0.133-0.344-0.199-0.523c-0.139-0.357-0.262-0.74-0.449-1.117
			c-0.178-0.38-0.346-0.783-0.549-1.185c-0.215-0.397-0.436-0.808-0.662-1.23c-0.256-0.405-0.518-0.82-0.787-1.246
			c-0.293-0.407-0.592-0.823-0.898-1.246c-0.336-0.399-0.664-0.815-1.02-1.217c-0.184-0.195-0.369-0.392-0.557-0.589
			c-0.184-0.199-0.367-0.4-0.57-0.584c-0.398-0.376-0.789-0.767-1.221-1.116l-0.635-0.538l-0.664-0.506
			c-0.434-0.351-0.904-0.65-1.357-0.972c-0.227-0.16-0.467-0.298-0.697-0.448c-0.238-0.144-0.465-0.3-0.705-0.433
			c-0.479-0.267-0.943-0.552-1.426-0.794c-0.24-0.125-0.477-0.248-0.713-0.371c-0.24-0.115-0.479-0.229-0.713-0.342
			c-0.47-0.234-0.952-0.42-1.41-0.632c-0.469-0.188-0.923-0.384-1.375-0.548c-0.451-0.169-0.891-0.33-1.321-0.473
			c-0.427-0.153-0.846-0.28-1.247-0.408c-0.806-0.243-1.548-0.456-2.212-0.623c-0.664-0.173-1.248-0.296-1.729-0.397
			c-0.483-0.094-0.862-0.172-1.124-0.214C30.739,8.667,30.599,8.649,30.599,8.649z"/>
	</g>
	<g>
		<path fill="#75401B" d="M36.687,56.406c-1.249,0-2.264-1.014-2.264-2.263c0-1.25,1.016-2.264,2.264-2.264s2.264,1.014,2.264,2.264
			C38.951,55.393,37.936,56.406,36.687,56.406z"/>
		<path fill="#020202" d="M36.687,52.198c1.075,0,1.946,0.871,1.946,1.945c0,1.073-0.871,1.944-1.946,1.944
			c-1.074,0-1.946-0.871-1.946-1.944C34.741,53.069,35.613,52.198,36.687,52.198 M36.687,51.56c-1.424,0-2.582,1.159-2.582,2.584
			c0,1.422,1.158,2.581,2.582,2.581s2.583-1.157,2.583-2.581C39.27,52.719,38.111,51.56,36.687,51.56L36.687,51.56z"/>
	</g>
	<g>
		<path fill="#4E2C16" d="M36.687,52.198c-0.078,0-0.156,0.005-0.232,0.012c0.965,0.118,1.713,0.937,1.713,1.934
			c0,0.993-0.748,1.814-1.713,1.93c0.076,0.01,0.154,0.015,0.232,0.015c1.075,0,1.946-0.871,1.946-1.944
			C38.633,53.069,37.762,52.198,36.687,52.198z"/>
	</g>
	<path fill="#747474" d="M34.278,61.892c0.558-0.629,2.076-0.751,2.876-0.771h-2.876V61.892L34.278,61.892z"/>
	<g>
		<g>
			<path fill="#E0E1E0" d="M10.949,36.246c-1.52-2.74-1.501-5.894,0.04-6.749c0.27-0.15,0.581-0.226,0.926-0.226
				c1.584,0,3.612,1.583,4.822,3.764l7.641,13.77l-5.789,3.212L10.949,36.246z"/>
			<path fill="#020202" d="M11.915,29.589c1.391,0,3.342,1.434,4.544,3.6c1.446,2.608,7.486,13.491,7.486,13.491l-2.616,1.452
				l-2.616,1.45c0,0-6.038-10.883-7.484-13.49c-1.448-2.609-1.419-5.576-0.084-6.318C11.37,29.649,11.63,29.589,11.915,29.589
				 M11.915,28.953c-0.4,0-0.763,0.089-1.08,0.265c-0.853,0.474-1.338,1.574-1.329,3.018c0.008,1.346,0.421,2.824,1.166,4.165
				c1.446,2.606,7.485,13.492,7.485,13.492l0.309,0.556l0.556-0.309l2.616-1.449l2.616-1.454l0.557-0.309l-0.309-0.556L17.015,32.88
				C15.753,30.604,13.607,28.953,11.915,28.953L11.915,28.953z"/>
		</g>
		<path fill="#FFFFFF" d="M11.228,36.092c1.446,2.607,7.484,13.49,7.484,13.49l2.616-1.45L11.144,29.775
			C9.809,30.516,9.78,33.483,11.228,36.092z"/>
	</g>
	<g>
		<g>
			<path fill="#916627" d="M27.198,60.942c-0.105,0-0.208-0.05-0.269-0.146L20.154,50.26c-0.048-0.075-0.062-0.165-0.041-0.25
				s0.077-0.157,0.155-0.2l3.069-1.702c0.048-0.027,0.102-0.043,0.154-0.043c0.033,0,0.066,0.005,0.097,0.018
				c0.084,0.025,0.153,0.088,0.191,0.168l5.355,11.323c0.072,0.152,0.013,0.333-0.133,0.415l-1.649,0.914
				C27.303,60.93,27.25,60.942,27.198,60.942z"/>
			<path fill="#020202" d="M23.492,48.383l5.355,11.328l-1.648,0.914l-6.776-10.537L23.492,48.383 M23.492,47.747
				c-0.106,0-0.213,0.027-0.308,0.08l-3.071,1.704c-0.154,0.086-0.265,0.23-0.308,0.401c-0.043,0.17-0.014,0.35,0.082,0.5
				l6.776,10.535c0.121,0.19,0.326,0.293,0.536,0.293c0.104,0,0.21-0.025,0.309-0.08l1.649-0.914
				c0.293-0.163,0.409-0.525,0.266-0.829l-5.355-11.325c-0.074-0.16-0.212-0.28-0.38-0.333
				C23.624,47.757,23.558,47.747,23.492,47.747L23.492,47.747z"/>
		</g>
		<polygon fill="#483017" points="28.392,59.961 28.847,59.711 24.075,49.657 23.202,50.315 		"/>
		<g>
			<path fill="#916627" d="M28.023,61.651c-0.539,0-1.036-0.293-1.297-0.764c-0.193-0.349-0.239-0.749-0.13-1.129
				c0.11-0.381,0.36-0.696,0.706-0.889c0.22-0.121,0.469-0.186,0.719-0.186c0.538,0,1.035,0.293,1.297,0.764
				c0.397,0.713,0.138,1.619-0.577,2.015C28.521,61.586,28.273,61.651,28.023,61.651z"/>
			<path fill="#020202" d="M28.021,59.002c0.41,0,0.807,0.218,1.02,0.599c0.312,0.563,0.109,1.271-0.454,1.585
				c-0.178,0.1-0.372,0.147-0.563,0.147c-0.41,0-0.806-0.218-1.019-0.601c-0.312-0.561-0.109-1.271,0.453-1.585
				C27.636,59.05,27.831,59.002,28.021,59.002 M28.021,58.366L28.021,58.366c-0.303,0-0.605,0.078-0.872,0.226
				c-0.421,0.232-0.726,0.616-0.857,1.079c-0.133,0.463-0.077,0.948,0.156,1.369c0.317,0.573,0.922,0.929,1.576,0.929
				c0.304,0,0.605-0.08,0.872-0.226c0.868-0.482,1.183-1.582,0.701-2.448C29.279,58.72,28.675,58.366,28.021,58.366L28.021,58.366z"
				/>
		</g>
		<g>
			<path fill="#483017" d="M27.968,59.005c0.086,0.08,0.161,0.178,0.223,0.285c0.312,0.563,0.109,1.271-0.454,1.582
				c-0.162,0.091-0.336,0.138-0.51,0.146c0.359,0.336,0.907,0.418,1.359,0.168c0.563-0.313,0.766-1.021,0.454-1.582
				C28.818,59.202,28.396,58.984,27.968,59.005z"/>
		</g>
	</g>
	<g>
		<path fill="#916627" d="M18.389,52.894c-0.56,0-1.076-0.303-1.348-0.791c-0.199-0.357-0.247-0.773-0.134-1.172
			c0.114-0.393,0.374-0.721,0.733-0.921l7.26-4.023c0.229-0.127,0.486-0.192,0.747-0.192c0.558,0,1.075,0.303,1.346,0.791
			c0.411,0.741,0.144,1.683-0.599,2.093l-7.26,4.023C18.907,52.829,18.647,52.894,18.389,52.894z"/>
		<g>
			<path fill="#020202" d="M25.646,46.112c0.43,0,0.846,0.225,1.069,0.628c0.327,0.591,0.114,1.332-0.475,1.66l-7.26,4.022
				c-0.188,0.105-0.391,0.153-0.591,0.153c-0.43,0-0.846-0.226-1.068-0.629c-0.328-0.588-0.115-1.332,0.475-1.657l7.26-4.025
				C25.244,46.162,25.446,46.112,25.646,46.112 M25.647,45.474L25.647,45.474c-0.315,0-0.626,0.082-0.901,0.235l-7.26,4.022
				c-0.434,0.241-0.748,0.637-0.885,1.112c-0.136,0.478-0.079,0.981,0.162,1.414c0.327,0.591,0.95,0.956,1.625,0.956
				c0.314,0,0.625-0.082,0.9-0.232l7.26-4.023c0.896-0.498,1.219-1.632,0.724-2.528C26.944,45.842,26.322,45.474,25.647,45.474
				L25.647,45.474z"/>
		</g>
	</g>
	<path fill="#68451A" d="M25.055,46.265l-1.88,1.041c0.664-0.027,1.352,1.317,1.317,2.063L26.24,48.4
		c0.589-0.328,0.802-1.069,0.475-1.66C26.388,46.149,25.645,45.939,25.055,46.265z"/>
	<g>
		<path fill="#75401B" d="M25.043,58.792c-2.312,0-4.192-1.88-4.192-4.19c0-2.313,1.881-4.193,4.192-4.193
			c2.312,0,4.192,1.88,4.192,4.193C29.235,56.912,27.355,58.792,25.043,58.792z"/>
		<g>
			<path fill="#020202" d="M25.043,50.726c2.14,0,3.874,1.735,3.874,3.876c0,2.138-1.734,3.872-3.874,3.872
				c-2.139,0-3.874-1.734-3.874-3.872C21.169,52.461,22.904,50.726,25.043,50.726 M25.043,50.09c-2.487,0-4.51,2.022-4.51,4.512
				c0,2.485,2.023,4.509,4.51,4.509c2.487,0,4.511-2.023,4.511-4.509C29.554,52.112,27.53,50.09,25.043,50.09L25.043,50.09z"/>
		</g>
	</g>
	<path fill="#502C16" d="M28.917,54.602c0-0.008-0.001-0.016-0.001-0.022c-1.248,1.899-3.445,2.03-4.853,1.187
		c-1.5-0.901-1.878-2.592-1.658-3.996c-0.759,0.709-1.235,1.713-1.235,2.832c0,2.138,1.735,3.872,3.874,3.872
		C27.183,58.474,28.917,56.739,28.917,54.602z"/>
</g>
<g>
</g>
<g>
</g>
<g>
</g>
<g>
</g>
<g>
</g>
<g>
</g>
</svg>
