<?xml version="1.0" encoding="utf-8"?>
<!-- Generator: Adobe Illustrator 21.1.0, SVG Export Plug-In . SVG Version: 6.00 Build 0)  -->
<svg version="1.1" id="Layer_1" xmlns="http://www.w3.org/2000/svg" xmlns:xlink="http://www.w3.org/1999/xlink" x="0px" y="0px"
	 viewBox="0 0 100 100" style="enable-background:new 0 0 100 100;" xml:space="preserve">
<style type="text/css">
	.st0{opacity:0.3;}
	.st1{fill:#E25D03;}
	.st2{fill:#FFFFFF;}
</style>
<g>
	<g class="st0">
		<polygon class="st1" points="100.1,101 0.1,1 50,1 100,51.2 		"/>
	</g>
	<g>
		<polygon class="st1" points="100.1,100 0.1,0 50,0 100,50.2 		"/>
	</g>
</g>
<g>
	<path class="st2" d="M33.4,19c-0.4-1.5-0.5-2.9-0.1-4.4c0.4-1.5,1.1-2.7,2.3-3.9c1.1-1.1,2.4-1.9,3.9-2.3c1.4-0.4,2.9-0.3,4.4,0.1
		c1.5,0.4,2.8,1.3,4,2.4c1,1,1.7,2.1,2.2,3.2c0.5,1.2,0.6,2.3,0.5,3.6l-3.3-0.1c0.1-1.7-0.4-3.1-1.5-4.3c-0.7-0.7-1.5-1.2-2.4-1.4
		c-0.9-0.2-1.7-0.2-2.6,0c-0.9,0.2-1.7,0.7-2.4,1.4c-0.7,0.7-1.2,1.5-1.4,2.4c-0.2,0.9-0.2,1.7,0,2.6c0.2,0.9,0.7,1.7,1.4,2.4
		c1.2,1.2,2.6,1.7,4.3,1.5l0.1,3.3c-1.2,0.1-2.4,0-3.6-0.5c-1.2-0.5-2.2-1.2-3.2-2.2C34.6,21.8,33.8,20.5,33.4,19z"/>
	<path class="st2" d="M42.9,28.8c-0.4-1.1-0.4-2.3-0.1-3.4c0.3-1.1,0.9-2.1,1.7-3s1.9-1.5,3-1.7c1.1-0.3,2.2-0.2,3.4,0.1
		s2.2,1,3.1,1.9s1.6,2,1.9,3.1c0.3,1.1,0.4,2.2,0.1,3.4c-0.3,1.1-0.9,2.1-1.7,3c-0.9,0.9-1.9,1.5-3,1.7c-1.1,0.3-2.2,0.2-3.4-0.1
		c-1.1-0.3-2.2-1-3.1-1.9S43.3,29.9,42.9,28.8z M49.2,30.7c0.9,0,1.7-0.4,2.4-1.2c0.7-0.7,1.1-1.6,1.2-2.4c0-0.9-0.3-1.6-1-2.3
		c-0.7-0.7-1.4-1-2.3-1c-0.9,0-1.7,0.4-2.4,1.1S46,26.6,46,27.5c0,0.9,0.3,1.6,1,2.3C47.6,30.4,48.4,30.7,49.2,30.7z"/>
	<path class="st2" d="M71.5,33.8L59.3,46l-2.5-2.5l1-1c-1.4,0.1-2.7-0.4-3.9-1.6c-0.8-0.8-1.4-1.8-1.7-2.8c-0.3-1-0.3-2.1,0-3.2
		c0.3-1.1,0.9-2.1,1.8-3c0.9-0.9,1.9-1.5,3-1.8c1.1-0.3,2.1-0.3,3.2,0c1,0.3,2,0.9,2.8,1.7c1.1,1.1,1.7,2.4,1.6,3.7l4.3-4.3
		L71.5,33.8z M58.7,40.2c0.9,0,1.7-0.4,2.4-1.1c0.7-0.7,1.1-1.6,1.1-2.4c0-0.9-0.3-1.6-0.9-2.3c-0.7-0.7-1.4-1-2.3-1
		c-0.9,0-1.7,0.4-2.4,1.1c-0.7,0.7-1.1,1.6-1.1,2.4c0,0.9,0.3,1.6,1,2.3C57.1,39.9,57.9,40.2,58.7,40.2z"/>
	<path class="st2" d="M69.2,38.2l2.6,2.6l-8.9,8.9l-2.6-2.6L69.2,38.2z M71,36.7c0-0.6,0.2-1.1,0.6-1.5c0.4-0.4,0.9-0.6,1.5-0.6
		c0.6,0,1.1,0.3,1.6,0.7c0.5,0.5,0.7,1,0.8,1.5s-0.1,1-0.5,1.4c-0.4,0.4-0.9,0.6-1.5,0.6c-0.6,0-1.1-0.3-1.6-0.7
		C71.2,37.8,71,37.3,71,36.7z"/>
	<path class="st2" d="M80,50.8c0,1.3-0.6,2.6-1.9,3.9L73,59.8l-2.6-2.6l4.7-4.7c0.7-0.7,1.1-1.4,1.1-2c0-0.7-0.2-1.3-0.8-1.9
		c-0.6-0.6-1.4-1-2.2-0.9c-0.8,0-1.6,0.4-2.4,1.2l-4.4,4.4L64,50.7l8.9-8.9l2.5,2.5l-1,1c0.7,0,1.4,0.1,2.1,0.4
		c0.7,0.3,1.4,0.8,2,1.4C79.4,48.2,80,49.4,80,50.8z"/>
	<path class="st2" d="M92.1,61.2l-7.4,7.4c-1.6,1.6-3.3,2.4-4.9,2.4S76.6,70,75,68.4c-0.9-0.9-1.6-1.8-2.1-2.8c-0.6-1-0.9-1.9-1-2.8
		l2.9-0.8c0.1,0.7,0.3,1.4,0.7,2.2c0.4,0.8,0.9,1.4,1.4,2c0.9,0.9,1.7,1.3,2.6,1.4c0.8,0,1.6-0.4,2.5-1.2l0.4-0.4
		c-1.4,0.1-2.7-0.5-3.9-1.7c-0.8-0.8-1.4-1.7-1.7-2.8c-0.3-1-0.4-2.1-0.1-3.1c0.3-1,0.8-2,1.6-2.8c0.8-0.8,1.8-1.4,2.8-1.6
		c1-0.3,2.1-0.2,3.1,0.1c1,0.3,2,0.9,2.8,1.7c1.3,1.3,1.8,2.7,1.7,4.2l1.1-1.1L92.1,61.2z M83.2,63.7c0.8,0,1.6-0.3,2.2-0.9
		c0.6-0.6,1-1.4,0.9-2.2c0-0.8-0.4-1.6-1.1-2.3c-0.7-0.7-1.4-1-2.3-1.1c-0.8,0-1.6,0.3-2.2,0.9c-0.6,0.6-1,1.4-0.9,2.2
		c0,0.8,0.4,1.6,1.1,2.3C81.6,63.3,82.4,63.7,83.2,63.7z"/>
</g>
</svg>
