<?xml version="1.0" encoding="utf-8"?>
<!-- Generator: Adobe Illustrator 16.0.0, SVG Export Plug-In . SVG Version: 6.00 Build 0)  -->
<!DOCTYPE svg PUBLIC "-//W3C//DTD SVG 1.1//EN" "http://www.w3.org/Graphics/SVG/1.1/DTD/svg11.dtd">
<svg version="1.1" id="loading-avatar" xmlns="http://www.w3.org/2000/svg" xmlns:xlink="http://www.w3.org/1999/xlink" x="0px" y="0px"
     width="512px" height="512px" viewBox="0 0 512 512" enable-background="new 0 0 512 512" xml:space="preserve">
    <g class="circle">
        <path fill="#A5A5A5" d="M256,11C120.695,11,11,120.677,11,256c0,135.301,109.695,245,245,245s245-109.699,245-245C501,120.677,391.305,11,256,11z"/>
    </g>
    <g class="ninja">
        <path fill="#FFF5E5" d="M145.479,474.691c8.664,4.396,24.095,10.55,33.316,13.891l-0.138-51.7h-33.179V474.691L145.479,474.691zM332.062,439.029l-0.293,50.027c9.222-3.355,26.082-9.968,34.748-14.353v-37.822L332.062,439.029z"/>
        <path fill="#161616" d="M321.451,363.949v-7.104h-14.9c-10.347-3.884-21.518-6.01-33.184-6.01h-34.73c-11.665,0-22.846,2.126-33.184,6.01h-14.902v7.104c-27.856,16.365-46.793,46.463-47.324,80.837h47.324v47.348c20.832,5.771,42.784,8.866,65.453,8.866c22.668,0,44.616-3.096,65.447-8.866v-47.348h47.322C368.238,410.414,349.309,380.316,321.451,363.949z"/>
        <path fill="#FFF5E5" d="M147.555,239.747c-11.784,0-21.35,9.563-21.35,21.346c0,11.806,9.566,21.361,21.35,21.361c11.797,0,21.357-9.556,21.357-21.361C168.913,249.311,159.353,239.747,147.555,239.747z M363.626,239.747c-11.79,0-21.344,9.563-21.344,21.346c0,11.806,9.554,21.361,21.344,21.361c11.805,0,21.357-9.556,21.357-21.361C384.983,249.311,375.431,239.747,363.626,239.747z"/>
        <path fill="#FFF5E5" d="M256,338.891c-15.819,0-28.638,12.814-28.638,28.639c0,15.809,12.819,28.639,28.638,28.639c15.815,0,28.638-12.83,28.638-28.639C284.638,351.705,271.815,338.891,256,338.891z"/>
        <path fill="#FFF5E5" d="M380.282,193.459c0-16.417-5.888-31.328-15.363-42.147c-9.488-10.804-22.589-17.501-36.984-17.501h-143.88c-14.373,0-27.467,6.711-36.951,17.514l-0.015-0.014c-9.488,10.819-15.375,25.73-15.375,42.146l19.764,116.766c0,16.389,5.895,31.313,15.382,42.118c9.477,10.819,22.578,17.531,36.969,17.531h104.346c14.396,0,27.488-6.712,36.977-17.516l-0.015-0.016c9.492-10.805,15.386-25.729,15.386-42.118L380.282,193.459z"/>
        <path fill="#3F2C06" d="M364.919,151.312c-37.255-42.422-82.421-19.598-136.183-18.673c-38.333,0.665-45.916-22.198-92.673-10.029c-45.463,11.833-7.903,50.924-0.526,93.418c18.254,19.309,146.517,13.384,174.108-19.117c20.697,41.323,21.381-7.552,49.491,59.652h10.473l10.678-63.104C380.286,177.042,374.399,162.131,364.919,151.312z"/>
        <rect x="213.726" y="422.216" fill="none" width="97.76" height="46.598"/>
        <text class='foo' transform="matrix(1 0 0 1 213.7261 452.0166)" fill="#FFFFFF" font-family="'Montserrat'" font-size="47.0784">foo</text>
    </g>
    <circle class="out" fill="none" stroke="#888888" stroke-width="30" stroke-miterlimit="10" cx="256" cy="256" r="240"/>
    <circle id="avatar-fill" class="fill" fill="none" stroke="#292929" stroke-width="34" stroke-miterlimit="10" cx="256" cy="256" r="242"/>
</svg>
