<?xml version="1.0" standalone="no"?>
<!DOCTYPE svg PUBLIC "-//W3C//DTD SVG 20010904//EN"
 "http://www.w3.org/TR/2001/REC-SVG-20010904/DTD/svg10.dtd">
<svg version="1.0" xmlns="http://www.w3.org/2000/svg"
 width="210.000000pt" height="210.000000pt" viewBox="0 0 210.000000 210.000000"
 preserveAspectRatio="xMidYMid meet">
<metadata>
Created by potrace 1.11, written by Peter Selinger 2001-2013
</metadata>
<g transform="translate(0.000000,210.000000) scale(0.100000,-0.100000)"
fill="#000000" stroke="none">
<path d="M757 1853 c-4 -3 -7 -19 -7 -34 0 -15 -5 -31 -10 -34 -6 -4 -9 -12
-8 -19 4 -18 -35 -62 -62 -71 -107 -33 -168 -92 -233 -226 -55 -114 -64 -148
-73 -264 -3 -49 -17 -133 -30 -186 -21 -82 -23 -106 -15 -156 6 -37 6 -77 0
-108 -6 -28 -11 -164 -11 -302 -2 -244 -1 -254 19 -275 12 -13 23 -38 25 -57
4 -47 22 -55 101 -47 84 9 101 24 94 82 -2 25 0 47 7 54 7 7 12 67 13 163 2
144 15 262 49 422 8 39 14 97 14 129 0 33 3 56 8 52 6 -7 8 -46 11 -221 1 -59
-19 -237 -33 -285 -20 -69 -20 -130 -1 -156 8 -10 15 -39 15 -64 0 -58 9 -69
56 -81 114 -27 521 -31 737 -7 109 12 113 15 118 88 2 25 9 55 17 67 18 29 18
68 -1 144 -24 97 -40 218 -38 276 1 29 -3 61 -8 72 -7 13 -7 36 1 75 l12 55
18 -56 c9 -31 20 -82 23 -112 4 -31 15 -105 25 -166 13 -74 18 -154 17 -247
-1 -94 3 -141 11 -151 8 -9 10 -29 6 -54 -8 -54 10 -70 93 -79 78 -8 97 0 101
45 2 18 12 41 22 51 23 23 35 95 25 157 -7 51 -19 327 -17 413 1 30 2 115 4
187 2 73 0 133 -4 133 -5 0 -7 3 -6 8 0 4 -1 14 -4 22 -24 68 -38 123 -44 165
-4 28 -18 83 -31 124 -53 165 -120 260 -211 300 -76 34 -95 45 -102 61 -20 40
-29 67 -32 90 l-3 25 -326 3 c-179 1 -328 -1 -332 -5z m1063 -788 c0 -8 -4
-15 -10 -15 -5 0 -7 7 -4 15 4 8 8 15 10 15 2 0 4 -7 4 -15z"/>
<path d="M1531 804 c0 -11 3 -14 6 -6 3 7 2 16 -1 19 -3 4 -6 -2 -5 -13z"/>
</g>
</svg>
